<svg xmlns="http://www.w3.org/2000/svg" viewBox="0 0 64 64" fill="none" role="img" aria-label="DocuGest">
  <defs>
    <linearGradient id="dg-bg" x1="10" y1="6" x2="54" y2="58" gradientUnits="userSpaceOnUse">
      <stop stop-color="#4F8EF7" />
      <stop offset="1" stop-color="#1E3A8A" />
    </linearGradient>
    <linearGradient id="dg-shine" x1="20" y1="14" x2="44" y2="50" gradientUnits="userSpaceOnUse">
      <stop stop-color="#FFFFFF" stop-opacity="0.35" />
      <stop offset="1" stop-color="#FFFFFF" stop-opacity="0" />
    </linearGradient>
  </defs>
  <rect width="64" height="64" rx="15" fill="url(#dg-bg)" />
  <rect width="64" height="64" rx="15" fill="url(#dg-shine)" />
  <path
    d="M19 17.5h17.2L44 25.3V46.5c0 1.4-1.1 2.5-2.5 2.5H19c-1.4 0-2.5-1.1-2.5-2.5V20c0-1.4 1.1-2.5 2.5-2.5Z"
    fill="#F8FAFC"
  />
  <path
    d="M36.2 17.5V25h7.8"
    stroke="#1E40AF"
    stroke-width="1.6"
    stroke-linecap="round"
    stroke-linejoin="round"
    fill="none"
  />
  <rect x="23" y="31" width="16" height="2.4" rx="1.2" fill="#3B82F6" opacity="0.55" />
  <rect x="23" y="36.5" width="12" height="2.4" rx="1.2" fill="#3B82F6" opacity="0.4" />
  <rect x="23" y="42" width="14" height="2.4" rx="1.2" fill="#3B82F6" opacity="0.3" />
  <circle cx="43.5" cy="43.5" r="9" fill="#22C55E" />
  <path
    d="M39.2 43.6 42.2 46.6 47.8 40.8"
    stroke="#FFFFFF"
    stroke-width="2.2"
    stroke-linecap="round"
    stroke-linejoin="round"
  />
</svg>
